<svg version="1.1" id="svg262" width="1280" class="logo2" height="1942.6667" viewBox="0 0 1280 1942.6667"
xmlns:xlink="http://www.w3.org/1999/xlink" xmlns="http://www.w3.org/2000/svg"
xmlns:svg="http://www.w3.org/2000/svg">
<defs id="defs266" />
<g id="g268">
    <path fill="#fff" stroke="#fff" stroke-width="1.33333"
        d="m 368.28131,1836.9679 c -10.42139,-26.6703 -18.94798,-48.8985 -18.94798,-49.3963 0,-0.4977 1.99711,-0.9049 4.43802,-0.9049 h 4.43801 l 15.76105,41 c 8.66858,22.55 16.42147,42.2941 17.22866,43.8759 1.27005,2.4886 3.71105,-3.0279 18.13426,-40.9819 L 426,1786.7031 l 4.82707,-0.019 4.82706,-0.019 -19.06413,49 -19.06412,49 -5.14829,0.3962 -5.14831,0.3963 -18.94797,-48.4913 z m 136.0358,-1.3012 0.34956,-49.6667 4.33333,-0.4178 4.33333,-0.4178 v 50.0844 50.0846 h -4.68289 -4.68289 z m 85.33313,0.6667 0.34976,-49 4.33333,-0.4179 4.33334,-0.4177 v 45.4177 45.4179 H 625.33333 652 v 4 4 h -31.34976 -31.34976 z m 129.02713,48 c 0.005,-0.55 9.21776,-22.9 20.47082,-49.6667 l 20.4601,-48.6667 4.61846,-0.3993 c 3.76669,-0.3256 4.88294,0.1813 6.05254,2.7483 3.48711,7.6533 40.38738,95.5952 40.38738,96.2524 0,0.4025 -1.99812,0.732 -4.44028,0.732 -4.33478,0 -4.56444,-0.2931 -9.66667,-12.3334 l -5.22639,-12.3333 -26.82686,-0.3604 -26.82686,-0.3604 -5.17314,12.6929 c -5.04139,12.3698 -5.2835,12.693 -9.50647,12.6938 -2.38333,4e-4 -4.32852,-0.4492 -4.32263,-0.9992 z m 63.14462,-46.6667 c -3.30715,-7.8833 -8.45772,-20.2156 -11.44574,-27.4051 -2.988,-7.1894 -5.88357,-12.5894 -6.43461,-12 -0.80009,0.8559 -7.99529,17.7298 -22.20404,52.0718 -0.53629,1.2962 4.51024,1.6666 22.70389,1.6666 h 23.39347 z M 880,1835.9035 v -49.4299 l 27.66667,0.4299 c 27.53449,0.4279 27.69693,0.4476 34.00225,4.154 8.06024,4.738 11.66441,11.4151 11.66441,21.6092 0,14.5789 -9.05578,24.0051 -24.60378,25.6097 -4.06792,0.4199 -7.39622,1.031 -7.39622,1.358 0,0.3272 7.39504,9.9932 16.43344,21.4802 9.03839,11.487 16.8738,21.6354 17.41202,22.5521 0.71262,1.2137 -0.40175,1.6631 -4.1001,1.6533 -4.99685,-0.013 -5.36873,-0.3882 -23.07869,-23.2796 l -18,-23.2662 -10.33333,-0.053 -10.33334,-0.053 v 23.3333 23.3334 H 884.66667 880 v -49.4299 z m 48.15135,-5.2301 c 5.53998,-1.0234 8.1727,-2.3907 11.51532,-5.9804 3.77521,-4.0544 4.33333,-5.5776 4.33333,-11.827 0,-5.3393 -0.73895,-8.1124 -2.89053,-10.8477 -4.90686,-6.2381 -9.71342,-7.3516 -31.73331,-7.3516 H 889.33333 V 1813.3334 1832 h 15.81802 c 8.6999,0 19.0499,-0.597 23,-1.3266 z M 373.10183,1704.028 c -10.40504,-3.1412 -18.289,-10.3502 -22.63224,-20.6946 -1.16694,-2.7794 -1.83354,-15.2911 -2.18439,-41 l -0.50495,-37 h 4.77654 4.77654 v 33.758 c 0,38.8148 0.98163,44.6489 8.64462,51.377 10.29248,9.037 30.42,9.301 40.83704,0.5355 8.55297,-7.1968 9.12314,-10.3108 9.15573,-50.0039 L 416,1605.3334 h 4.74392 4.74391 l -0.41058,37 c -0.40798,36.7654 -0.43281,37.0473 -3.91617,44.476 -4.02955,8.5933 -10.17361,13.8858 -19.31287,16.6364 -6.7181,2.0218 -22.89248,2.3494 -28.74638,0.5822 z m 148.2315,0.059 c -12.9925,-3.9666 -24,-14.9171 -24,-23.8758 0,-2.7241 6.8867,-5.5506 7.68546,-3.1544 2.43697,7.311 6.98482,13.3104 12.2911,16.2144 8.93594,4.8906 26.34683,5.4716 34.61206,1.1552 8.11997,-4.2405 11.44357,-9.1398 11.28105,-16.6292 -0.10467,-4.8262 -0.93292,-6.8088 -4.21561,-10.0914 -3.42627,-3.4263 -7.26,-4.9176 -23.7652,-9.245 -26.93179,-7.0609 -33.8734,-12.6974 -33.88387,-27.5134 -0.012,-16.7202 12.62547,-26.947 33.29825,-26.947 16.43135,0 31.46552,8.6894 34.90674,20.1751 1.76116,5.8783 1.72825,5.9543 -3.099,7.1659 -3.2194,0.808 -3.79364,0.3408 -6.16252,-5.0144 -4.13515,-9.3483 -13.47664,-14.3026 -26.99927,-14.3191 -7.17463,-0.013 -16.65031,4.4227 -20.36352,9.5236 -3.13157,4.3017 -3.29436,13.3467 -0.32185,17.8833 2.96806,4.5299 7.16429,6.3363 26.06952,11.2228 16.90356,4.3692 22.68537,6.6108 27.1365,10.5204 9.90707,8.702 8.1348,29.4832 -3.20288,37.5563 -2.26972,1.6163 -6.87865,3.7668 -10.24209,4.7791 -6.46675,1.9461 -25.40728,2.3085 -31.02487,0.5936 z M 53.650239,1655 54,1606 h 24.139165 24.139165 l 9.14398,4.6667 c 10.42724,5.3216 17.72496,13.6713 21.55869,24.6667 2.80476,8.0441 3.18216,29.2697 0.66755,37.543 -2.36484,7.7806 -9.29722,17.596 -16.04072,22.7118 -9.18115,6.965 -16.38211,8.4118 -41.866259,8.4118 H 53.300477 Z m 47.982751,39.6059 c 19.00462,-5.278 29.85391,-30.6757 23.07099,-54.0081 -5.90913,-20.3268 -17.67766,-27.2644 -46.249221,-27.2644 H 62.666667 V 1654.6667 1696 l 17,-0.013 c 9.35,0 19.234846,-0.6281 21.966323,-1.3867 z m 107.70034,-39.9392 v -49.3333 h 33.4219 33.42189 l -0.42189,3.6666 -0.4219,3.6667 -28.33333,0.3599 -28.33333,0.3598 v 17.9735 17.9735 H 245.33333 272 v 4 4 h -26.66667 -26.66666 v 19.3068 19.3068 l 28.33333,0.3598 28.33333,0.3599 0.4219,3.6667 0.42189,3.6666 h -33.42189 -33.4219 z m 434.98358,0.3333 0.34976,-49 h 24.13916 24.13917 l 9.14397,4.6667 c 10.42726,5.3216 17.72498,13.6713 21.5587,24.6667 2.80476,8.0441 3.18216,29.2697 0.66754,37.543 -2.36484,7.7806 -9.29721,17.596 -16.04072,22.7118 -9.18114,6.965 -16.3821,8.4118 -41.86625,8.4118 h -22.44109 z m 47.98274,39.6059 c 19.00463,-5.278 29.85391,-30.6757 23.071,-54.0081 -5.90913,-20.3268 -17.67766,-27.2644 -46.24922,-27.2644 h -15.7881 V 1654.6667 1696 l 17,-0.013 c 9.35,0 19.23484,-0.6281 21.96632,-1.3867 z M 800,1654.6667 v -49.3333 h 33.42189 33.4219 l -0.4219,3.6666 -0.42189,3.6667 -28.33333,0.3599 -28.33334,0.3598 v 17.9735 17.9735 H 836 862.66667 v 4 4 H 836 809.33333 v 19.3068 19.3068 l 28.33334,0.3598 28.33333,0.3599 0.42189,3.6667 0.4219,3.6666 H 833.42189 800 Z m 140.31691,0.3333 0.34976,-49 h 24.13916 24.13917 l 9.14397,4.6667 c 10.42723,5.3216 17.72493,13.6713 21.55873,24.6667 2.8047,8.0441 3.1821,29.2697 0.6675,37.543 -2.3648,7.7806 -9.2972,17.596 -16.0407,22.7118 -9.18115,6.965 -16.38211,8.4118 -41.86626,8.4118 h -22.44109 z m 47.98274,39.6059 c 19.00465,-5.278 29.85395,-30.6757 23.07105,-54.0081 -5.9092,-20.3268 -17.67771,-27.2644 -46.24927,-27.2644 h -15.7881 V 1654.6667 1696 l 17,-0.013 c 9.35,0 19.23484,-0.6281 21.96632,-1.3867 z m 108.01745,-40.2725 0.3496,-49.6667 4.3333,-0.4179 4.3333,-0.4177 V 1653.9155 1704 h -4.6829 -4.6829 z M 1212,1658.7066 v -45.2935 l -17,-0.3732 -17,-0.3732 -0.4219,-3.6667 -0.4219,-3.6666 H 1216.5781 1256 v 4 4 h -17.3333 -17.3334 V 1658.6667 1704 H 1216.6667 1212 Z m -577.62224,-274.3718 -28.95557,-0.3865 -1.4969,-5.6408 c -0.82329,-3.1024 -3.26024,-11.9408 -5.41544,-19.6408 C 595.24121,1346.9887 564,1218.3519 564,1216.5712 564,1216.2571 465.6,1216 345.33333,1216 H 126.66667 V 741.33335 266.66667 h 393.91014 c 373.9995,0 393.9452,-0.118 394.60352,-2.33333 0.38135,-1.28334 6.15803,-25.43334 12.83707,-53.66667 6.67905,-28.23333 16.41032,-68.33327 21.62504,-89.11095 l 9.48132,-37.777624 42.10474,0.94626 c 23.1577,0.520444 42.3563,1.171832 42.6636,1.447529 0.3074,0.275698 -1.9584,11.449809 -5.0351,24.831355 -3.0766,13.38155 -5.9123,26.1301 -6.3014,28.3301 -0.7821,4.4215 -24.6722,105.49196 -43.33475,183.33333 -6.59314,27.5 -52.05476,218.43973 -101.02581,424.31052 -48.97104,205.87077 -89.35685,374.62911 -89.74624,375.01851 -0.38939,0.3894 -20.18067,0.5496 -43.98063,0.3561 L 711.19553,1122 802.91331,736.66668 c 50.44477,-211.93334 91.72577,-386.08334 91.73556,-387.00001 0.0142,-1.32912 -70.4616,-1.66666 -347.9822,-1.66666 h -348 v 392.66667 392.66672 h 172.75652 c 163.90229,0 172.72137,-0.1196 172.07096,-2.3334 -0.37706,-1.2833 -41.55324,-174.23332 -91.50263,-384.33332 -49.94939,-210.1 -91.14636,-383.35001 -91.54884,-385.00001 l -0.73177,-3 h 43.88278 43.8828 l 91.02484,382.33334 c 50.06366,210.28334 95.99294,403.03339 102.06506,428.33339 6.07212,25.3 15.15688,63.6155 20.18834,85.1456 5.03148,21.5302 9.43483,38.3302 9.78522,37.3334 0.35038,-0.9968 4.00256,-15.9124 8.11593,-33.1457 l 7.47884,-31.3333 43.59931,-0.3516 c 32.89689,-0.2653 43.5993,0.036 43.5993,1.2274 0,1.405 -21.76176,94.2315 -32.05661,136.7402 -2.16887,8.9554 -3.94339,17.2054 -3.94339,18.3333 0,2.1424 -12.06836,2.2657 -102.95557,1.0521 z m 19.78848,-208.9859 C 648.57481,1152.9908 644,1134.4012 644,1134.0386 c 0,-0.3625 82.35,-0.8312 183,-1.0414 l 183,-0.3822 13.3333,-3.7059 c 33.4516,-9.2974 66.4602,-23.8591 83.553,-36.8592 58.1938,-44.2601 89.7331,-175.2221 85.9073,-356.71655 -4.3818,-207.87942 -31.6807,-313.40448 -91.6033,-354.09712 -23.5444,-15.9887 -57.9971,-27.97154 -92.2381,-32.08086 -7.4904,-0.89894 -13.84704,-1.80482 -14.12593,-2.01307 -0.27888,-0.20825 3.84384,-17.80047 9.16163,-39.0938 9.0122,-36.08664 9.8681,-38.71516 12.6054,-38.71516 5.722,0 28.3098,4.32028 45.5929,8.72037 26.3107,6.69843 53.1363,17.70642 73.5254,30.17147 78.9559,48.2704 117.8792,139.72055 131.5635,309.10816 5.594,69.24361 7.33,176.45562 3.6593,226.00001 -7.6824,103.69307 -22.7927,171.71635 -50.9427,229.33335 -29.5905,60.5654 -66.1099,93.5997 -131.6484,119.0852 -22.2768,8.6626 -41.1804,14.0164 -69.374,19.6479 L 995.93855,1216 H 830.13551 664.33248 Z M 319.70165,189.66667 C 302.08167,114.45764 295.75647,86.440044 296.29469,85.98506 c 0.20459,-0.172944 19.27904,-0.739332 42.38767,-1.25864 l 42.01569,-0.944197 10.36334,40.442227 c 8.6204,33.64049 27.46652,111.38731 30.89246,127.44222 L 422.87855,256 h -43.81816 -43.81815 z"
        id="path272" class="svg-elem-1" />
</g>
</svg>